<?xml version="1.0" encoding="utf-8"?>
<!-- Generator: Adobe Illustrator 19.0.0, SVG Export Plug-In . SVG Version: 6.00 Build 0)  -->
<svg xmlns="http://www.w3.org/2000/svg" xmlns:xlink="http://www.w3.org/1999/xlink" version="1.1" id="Layer_1" x="0px" y="0px" viewBox="0 0 372 421.5" style="enable-background:new 0 0 372 421.5;" xml:space="preserve">
<style type="text/css">
	.st0{fill:#FF9300;}
</style>
<g>
	<path class="st0" d="M194.2,53.2c0.8,0,1.6,0,2.4,0c0.8,0.1,1.6,0.3,2.5,0.3c6,0.1,12,0.8,17.9,2c18.7,3.9,35.4,12,49.9,24.6   c17.1,14.8,28.7,33.1,34.7,55c2.8,10.2,4.2,20.6,3.7,31.2c-0.2,6-1.4,11.9-2.8,17.7c-2.7,11.2-6.6,22-10.9,32.7   c-8.6,21.1-18.7,41.5-29.5,61.6c-18.7,34.7-39.1,68.4-60.5,101.5c-3,4.6-8.8,4.5-11.8-0.1c-13.8-21.6-27.3-43.5-40.1-65.7   c-14.3-24.8-28-49.9-40.1-75.8c-6-12.8-11.5-25.7-16-39.1c-3.7-11-6.9-22-7.4-33.7c0-0.3-0.2-0.6-0.3-0.9c0-0.8,0-1.6,0-2.4   c0.1-0.6,0.3-1.2,0.3-1.8c0-5.5,0.6-10.9,1.6-16.3c2.2-12.2,6.3-23.8,12.4-34.5c11-19.3,26.3-34.1,46-44.2   c14.4-7.4,29.7-11.4,46-11.8C192.8,53.5,193.5,53.3,194.2,53.2z M279.3,163.5c-0.1-46.9-37-84.1-83.8-84.1   c-46.9,0-83.8,37.1-83.8,84c0,47,38.3,84.1,83.8,84.1C241.3,247.6,279.3,210,279.3,163.5z"/>
	<path class="st0" d="M179.7,220.3c-6,3.1-11.9,5.9-18.8,5.7c-4.9-0.1-8-3.8-7.2-8.6c1-5.8,2.1-11.5,3.2-17.3   c1.3-6.5,2.6-13.1,3.9-19.6c1.3-6.3,2.6-12.5,3.9-18.8c1.1-5.2,2.1-10.3,3.2-15.5c0.2-1.1-0.2-1.5-1.2-1.9   c-2.3-0.9-4.6-1.9-6.7-3.1c-3-1.8-4.5-4.7-4.8-8.2c-0.2-1.9-0.3-3.9-0.5-6c3.8,0.9,7.3,1.7,10.8,2.5c6.2,1.4,12.4,2.8,18.6,4.2   c2.6,0.6,5.2,1.1,7.7,1.7c0.4,0.1,0.9,0.5,1,0.9c0.9,2.9,0.6,5.8-0.1,8.6c-0.9,4-2,8.1-3,12.1c-0.1,0.3,0,0.7,0.1,1   c0.3-0.1,0.6-0.1,0.9-0.2c6-3.9,11.8-8.1,17-13.1c4.7-4.6,8.4-9.8,11.5-15.6c0.3-0.6,0.9-1.2,1.5-1.4c4.8-1.9,9.6-3.7,14.4-5.5   c0.7-0.3,1.1-0.1,1.6,0.3c1.6,1.6,2.3,3.5,2.5,5.7c0.2,3.8-1.1,7.1-3.1,10.1c-3.6,5.3-8.2,9.7-13.2,13.5   c-6.3,4.7-12.9,9.2-19.4,13.7c-0.1,0.1-0.3,0.2-0.4,0.3c-1.5,1-1.5,1.1,0.1,2c5.4,3,10.9,5.9,16.2,9c3.5,2,6.2,4.9,7.3,9   c0.9,3.3,0.3,6.5-0.4,9.7c-1,4.6-2.1,9.1-3.1,13.7c-0.6,3,0.3,4.3,3.4,4.9c1.5,0.3,2.9,0.4,4.4,0.7c0.3,0.1,0.8,0.6,0.8,0.9   c-0.4,3.3-1.4,6.4-4.1,8.6c-1.4,1.1-3.1,1.4-4.7,1.5c-5.2,0.4-10.2-0.3-14.9-2.6c-4.1-2-6.1-5.4-6-9.8c0.1-3.2,0.6-6.4,1.1-9.6   c0.8-4.6,1.8-9.3,2.7-13.9c0.3-1.6,0.1-2.1-1.3-2.8c-6.1-2.8-12.2-5.6-18.3-8.3c-0.9-0.4-1.3-0.3-1.6,0.8c-1.2,6.3-2.6,12.7-3.8,19   c-0.8,4.1-1.5,8.3-2.5,12.3c-0.7,3,0.1,5.5,1.2,8.1C179.4,219.5,179.5,219.8,179.7,220.3z"/>
	<path class="st0" d="M137.4,118.7c1-0.4,1.8-0.8,2.5-1.1c10.6-4.1,21.2-8.1,31.8-12.2c5.6-2.2,11.2-4.4,16.8-6.7   c3.3-1.4,6.6-1,9.9-0.4c3.4,0.7,6.8,1.5,10.2,2.2c5.1,1.1,10.2,2.2,15.3,3.3c7.1,1.5,14.3,3,21.4,4.6c2.2,0.5,4.3,1,6.5,1.8   c-1.5,0.6-2.9,1.2-4.4,1.8c-11.5,4.4-23,8.7-34.5,13.1c-4.5,1.7-9,3.4-13.5,5.2c-2.7,1.1-5.5,1-8.3,0.4c-6.4-1.3-12.7-2.8-19.1-4.2   c-5.2-1.2-10.4-2.5-15.6-3.7c-2.5-0.6-5.1-1.1-7.6-1.6c-0.9-0.2-1,0.4-1,1.1c-0.1,1.9-0.2,3.8-0.2,5.8c0,5.8,0,11.6-0.1,17.4   c-0.1,3.5,0.8,6.6,2.6,9.6c1.4,2.3,1,4-1.2,5.5c-0.9,0.6-1.7,1.2-2.6,1.9c-1.3-1.3-2.7-2.5-4-3.9c-0.7-0.8-0.6-1.8,0-2.6   c2.2-3,2.6-6.5,2.6-10c0.1-7.9,0-15.8,0.1-23.6c0-1.2-0.5-1.8-1.6-2C141.6,119.7,139.6,119.2,137.4,118.7z"/>
</g>
</svg>
